<?xml version="1.0" encoding="UTF-8" ?>
<!DOCTYPE svg PUBLIC "-//W3C//DTD SVG 1.1//EN" "http://www.w3.org/Graphics/SVG/1.1/DTD/svg11.dtd">
<svg width="128pt" height="128pt" viewBox="0 0 128 128" version="1.1" xmlns="http://www.w3.org/2000/svg">
<path fill="#ffffff" d=" M 0.00 0.00 L 128.00 0.00 L 128.00 128.00 L 0.00 128.00 L 0.00 0.00 Z" />
<path fill="#88c042" d=" M 59.99 12.01 C 62.98 10.34 66.65 10.77 69.52 12.49 C 80.67 19.02 91.78 25.60 103.06 31.90 C 106.44 33.98 111.22 36.32 111.00 40.96 C 111.02 55.98 110.99 71.01 111.01 86.04 C 111.25 88.94 109.33 91.49 106.96 92.93 C 94.93 100.36 82.40 106.96 70.33 114.33 C 67.50 116.25 63.73 117.11 60.54 115.54 C 55.60 112.99 50.88 110.03 46.29 106.92 C 48.48 105.80 50.72 104.82 52.99 103.88 C 56.78 105.77 60.32 108.11 64.04 110.13 C 77.78 102.60 91.21 94.53 104.78 86.70 C 105.01 71.31 105.08 55.90 104.75 40.51 C 91.28 32.66 77.75 24.92 64.23 17.18 C 50.71 24.60 37.50 32.59 24.10 40.23 C 23.90 55.75 23.99 71.28 24.06 86.81 C 28.84 89.63 33.40 93.60 39.00 94.49 C 42.43 95.27 45.01 92.19 44.91 88.96 C 45.32 74.04 44.63 59.08 45.22 44.16 C 47.16 44.06 49.09 44.00 51.03 43.96 C 51.48 58.64 51.05 73.33 51.25 88.01 C 51.18 91.39 51.66 95.40 48.90 97.93 C 46.15 101.52 41.18 101.55 37.11 100.94 C 32.18 99.81 28.00 96.79 23.59 94.47 C 21.64 93.18 19.10 92.22 18.19 89.88 C 17.04 87.43 16.92 84.70 16.96 82.04 C 17.04 69.35 16.99 56.65 16.97 43.95 C 17.01 40.39 17.83 36.10 21.29 34.27 C 34.21 26.89 46.99 19.26 59.99 12.01 Z" />
<path fill="#88c042" d=" M 60.37 47.33 C 65.64 42.67 73.20 42.51 79.83 43.16 C 83.78 43.91 88.13 44.88 90.79 48.18 C 93.01 50.64 93.52 54.02 94.21 57.14 C 92.15 57.34 90.08 57.49 88.01 57.60 C 86.39 55.11 85.33 51.82 82.38 50.58 C 77.34 48.27 71.10 48.38 66.31 51.24 C 64.36 52.34 64.33 54.73 63.93 56.65 C 65.94 57.89 68.02 59.16 70.43 59.37 C 76.18 60.10 81.97 60.83 87.57 62.39 C 90.73 63.50 94.49 65.41 94.90 69.15 C 95.28 73.18 95.40 78.11 91.93 80.92 C 86.30 85.61 78.44 86.11 71.44 85.45 C 66.10 84.71 59.86 83.06 57.30 77.79 C 55.96 75.63 55.94 73.05 55.87 70.60 C 57.91 70.53 59.95 70.49 61.99 70.44 C 63.37 73.61 64.57 77.80 68.52 78.51 C 74.22 79.64 80.84 80.29 86.04 77.17 C 89.27 75.32 88.60 70.14 85.16 68.91 C 79.02 67.12 72.56 66.92 66.29 65.77 C 63.00 64.72 59.38 63.04 57.82 59.78 C 56.93 55.55 56.92 50.48 60.37 47.33 Z" />
</svg>
